# xmcd
#
# Track frame offsets:
#	150
#	13744
#	28644
#	46029
#	61497
#	75559
#	84844
#	96245
#	107429
#	119110
#	135881
#	146340
#	160727
#	173094
#	185455
#	196421
#	211078
#	233302
#	255050
#	269400
#	284394
#	294071
#	312032
#	326870
#
# Disc length: 4726 seconds
#
# Revision: 1
# Processed by: cddbd v1.5.1PL0 Copyright (c) Steve Scherf et al.
# Submitted via: CDex 1.50Beta5
#
DISCID=33127418
DTITLE=THE BLUE HEARTS - ORIGINAL BEST
DYEAR=1900
DGENRE=
TTITLE0=情熱の薔薇
TTITLE1=人にやさしく
TTITLE2=TRAIN - TRAIN
TTITLE3=リンダリンダ
TTITLE4=終わらない歌
TTITLE5=ながれもの
TTITLE6=夢
TTITLE7=未来は僕等の手の中
TTITLE8=テトラポットの上
TTITLE9=ナイフ
TTITLE10=ロクデナシ
TTITLE11=チェルノブイリ
TTITLE12=少年の詩
TTITLE13=少年の詩
TTITLE14=台風
TTITLE15=旅人
TTITLE16=心の救急車
TTITLE17=青空
TTITLE18=僕の右手
TTITLE19=キスしてほしい
TTITLE20=ハンマー
TTITLE21=夕暮れ
TTITLE22=青春
TTITLE23=日曜日よりの使者
EXTD=
EXTT0=
EXTT1=
EXTT2=
EXTT3=
EXTT4=
EXTT5=
EXTT6=
EXTT7=
EXTT8=
EXTT9=
EXTT10=
EXTT11=
EXTT12=
EXTT13=
EXTT14=
EXTT15=
EXTT16=
EXTT17=
EXTT18=
EXTT19=
EXTT20=
EXTT21=
EXTT22=
EXTT23=
PLAYORDER=
